<svg width="16" height="18" viewBox="0 0 16 18" fill="none" xmlns="http://www.w3.org/2000/svg">
<g clip-path="url(#clip0_101_704)">
<path d="M8.00234 4.95732C5.73091 4.95732 3.89877 6.76084 3.89877 8.99677C3.89877 11.2327 5.73091 13.0362 8.00234 13.0362C10.2738 13.0362 12.1059 11.2327 12.1059 8.99677C12.1059 6.76084 10.2738 4.95732 8.00234 4.95732ZM8.00234 11.6229C6.53448 11.6229 5.33448 10.4452 5.33448 8.99677C5.33448 7.54834 6.53091 6.3706 8.00234 6.3706C9.47377 6.3706 10.6702 7.54834 10.6702 8.99677C10.6702 10.4452 9.4702 11.6229 8.00234 11.6229ZM13.2309 4.79209C13.2309 5.31592 12.8023 5.73428 12.2738 5.73428C11.7416 5.73428 11.3166 5.3124 11.3166 4.79209C11.3166 4.27178 11.7452 3.8499 12.2738 3.8499C12.8023 3.8499 13.2309 4.27178 13.2309 4.79209ZM15.9488 5.74834C15.888 4.48623 15.5952 3.36826 14.6559 2.44717C13.7202 1.52607 12.5845 1.23779 11.3023 1.17451C9.98091 1.10068 6.0202 1.10068 4.69877 1.17451C3.4202 1.23428 2.28449 1.52256 1.3452 2.44365C0.405915 3.36475 0.116629 4.48271 0.0523437 5.74482C-0.0226562 7.0456 -0.0226562 10.9444 0.0523437 12.2452C0.113058 13.5073 0.405915 14.6253 1.3452 15.5464C2.28449 16.4675 3.41663 16.7558 4.69877 16.819C6.0202 16.8929 9.98091 16.8929 11.3023 16.819C12.5845 16.7593 13.7202 16.471 14.6559 15.5464C15.5916 14.6253 15.8845 13.5073 15.9488 12.2452C16.0238 10.9444 16.0238 7.04912 15.9488 5.74834ZM14.2416 13.6409C13.963 14.33 13.4238 14.8608 12.7202 15.1386C11.6666 15.5499 9.16662 15.455 8.00234 15.455C6.83805 15.455 4.33448 15.5464 3.28448 15.1386C2.58448 14.8643 2.0452 14.3335 1.76306 13.6409C1.3452 12.6038 1.44163 10.1429 1.44163 8.99677C1.44163 7.85068 1.34877 5.38623 1.76306 4.35264C2.04163 3.66357 2.58091 3.13271 3.28448 2.85498C4.33806 2.44365 6.83805 2.53857 8.00234 2.53857C9.16662 2.53857 11.6702 2.44717 12.7202 2.85498C13.4202 3.1292 13.9595 3.66006 14.2416 4.35264C14.6595 5.38974 14.563 7.85068 14.563 8.99677C14.563 10.1429 14.6595 12.6073 14.2416 13.6409Z" fill="#333333"/>
</g>
<defs>
<clipPath id="clip0_101_704">
<rect width="16" height="18" fill="white"/>
</clipPath>
</defs>
</svg>
