<svg width="24" height="24" viewBox="0 0 24 24" fill="none" xmlns="http://www.w3.org/2000/svg">
<g clip-path="url(#clip0_101_693)">
<path d="M11.136 21.525C9.23282 19.1426 5 13.3684 5 10.125C5 6.18992 8.13397 3 12 3C15.8646 3 19 6.18992 19 10.125C19 13.3684 14.7344 19.1426 12.8641 21.525C12.4156 22.0928 11.5844 22.0928 11.136 21.525ZM12 12.5C13.287 12.5 14.3334 11.435 14.3334 10.125C14.3334 8.81504 13.287 7.75 12 7.75C10.713 7.75 9.66668 8.81504 9.66668 10.125C9.66668 11.435 10.713 12.5 12 12.5Z" fill="#333333"/>
</g>
<defs>
<clipPath id="clip0_101_693">
<rect width="14" height="19" fill="white" transform="translate(5 3)"/>
</clipPath>
</defs>
</svg>
