<svg width="130" height="130" viewBox="0 0 130 130" fill="none" xmlns="http://www.w3.org/2000/svg">
<path d="M35.2085 54.1666C34.0006 54.1666 32.8414 54.3508 31.6877 54.5187C32.0614 53.262 32.446 51.9837 33.0635 50.8354C33.681 49.167 34.6452 47.7208 35.6039 46.2637C36.4056 44.6874 37.8193 43.6203 38.8593 42.2716C39.9481 40.9608 41.4323 40.0887 42.6077 38.9999C43.7614 37.8624 45.2727 37.2937 46.4752 36.492C47.7318 35.7716 48.826 34.9754 49.996 34.5962L52.9156 33.3937L55.4831 32.3266L52.856 21.8291L49.6223 22.6091C48.5877 22.8691 47.3256 23.1724 45.8902 23.5353C44.4223 23.8062 42.8568 24.5483 41.1127 25.2254C39.3902 25.9945 37.3968 26.5145 35.5443 27.7495C33.681 28.9304 31.5306 29.9162 29.6348 31.4979C27.7985 33.1283 25.5831 34.542 23.9473 36.6166C22.1598 38.5558 20.3939 40.5924 19.0235 42.9108C17.4364 45.1208 16.3585 47.5474 15.221 49.947C14.1918 52.3466 13.3631 54.8004 12.686 57.1837C11.4023 61.9612 10.8281 66.5004 10.606 70.3841C10.4218 74.2733 10.5302 77.507 10.7577 79.847C10.8389 80.952 10.9906 82.0245 11.0989 82.7666L11.2343 83.6766L11.3752 83.6441C12.3386 88.1444 14.5564 92.2801 17.7721 95.5726C20.9877 98.8651 25.0698 101.18 29.5461 102.249C34.0225 103.319 38.7101 103.099 43.0668 101.616C47.4234 100.132 51.2711 97.4457 54.1647 93.8669C57.0583 90.288 58.8796 85.9631 59.4179 81.3924C59.9561 76.8217 59.1894 72.1919 57.2063 68.0388C55.2233 63.8857 52.1049 60.3788 48.212 57.9239C44.3192 55.4689 39.8108 54.1663 35.2085 54.1666ZM94.7918 54.1666C93.5839 54.1666 92.4248 54.3508 91.271 54.5187C91.6448 53.262 92.0294 51.9837 92.6469 50.8354C93.2643 49.167 94.2285 47.7208 95.1873 46.2637C95.9889 44.6874 97.4027 43.6203 98.4427 42.2716C99.5314 40.9608 101.016 40.0887 102.191 38.9999C103.345 37.8624 104.856 37.2937 106.059 36.492C107.315 35.7716 108.409 34.9754 109.579 34.5962L112.499 33.3937L115.066 32.3266L112.439 21.8291L109.206 22.6091C108.171 22.8691 106.909 23.1724 105.474 23.5353C104.006 23.8062 102.44 24.5483 100.696 25.2254C98.9789 25.9999 96.9802 26.5145 95.1277 27.7549C93.2644 28.9358 91.1139 29.9216 89.2181 31.5033C87.3819 33.1337 85.1664 34.5474 83.5306 36.6166C81.7431 38.5558 79.9773 40.5924 78.6068 42.9108C77.0198 45.1208 75.9418 47.5474 74.8043 49.947C73.7752 52.3466 72.9464 54.8004 72.2693 57.1837C70.9856 61.9612 70.4114 66.5004 70.1893 70.3841C70.0052 74.2733 70.1135 77.507 70.341 79.847C70.4223 80.952 70.5739 82.0245 70.6823 82.7666L70.8177 83.6766L70.9585 83.6441C71.9219 88.1444 74.1397 92.2801 77.3554 95.5726C80.5711 98.8651 84.6532 101.18 89.1295 102.249C93.6058 103.319 98.2934 103.099 102.65 101.616C107.007 100.132 110.854 97.4457 113.748 93.8669C116.642 90.288 118.463 85.9631 119.001 81.3924C119.539 76.8217 118.773 72.1919 116.79 68.0388C114.807 63.8857 111.688 60.3788 107.795 57.9239C103.902 55.4689 99.3941 54.1663 94.7918 54.1666Z" fill="#ED4D41"/>
</svg>
