<svg width="19" height="14" viewBox="0 0 19 14" fill="none" xmlns="http://www.w3.org/2000/svg">
<g clip-path="url(#clip0_101_712)">
<path d="M18.9961 1.70539C18.3221 1.98986 17.6071 2.17658 16.875 2.25936C17.6376 1.82395 18.2231 1.13447 18.4988 0.312956C17.7739 0.722764 16.9808 1.0115 16.1538 1.16669C15.4801 0.482965 14.5204 0.0556641 13.4582 0.0556641C11.4187 0.0556641 9.76519 1.6309 9.76519 3.57375C9.76519 3.84953 9.79788 4.11801 9.86081 4.37557C6.79167 4.2288 4.07058 2.8282 2.24913 0.699664C1.93132 1.21927 1.74921 1.82368 1.74921 2.46835C1.74921 3.68896 2.40122 4.76576 3.39206 5.3967C2.80562 5.3792 2.23208 5.2283 1.71933 4.9566C1.71912 4.97134 1.71912 4.98607 1.71912 5.00088C1.71912 6.70546 2.99205 8.12743 4.68138 8.45064C4.13758 8.59153 3.56716 8.61215 3.01371 8.51092C3.48361 9.90865 4.84746 10.9258 6.46338 10.9542C5.19952 11.8978 3.60715 12.4603 1.87704 12.4603C1.57891 12.4603 1.28501 12.4436 0.996094 12.4111C2.63037 13.4093 4.57148 13.9918 6.65695 13.9918C13.4496 13.9918 17.164 8.63083 17.164 3.98176C17.164 3.82916 17.1605 3.67744 17.1533 3.52659C17.8763 3.02868 18.5003 2.41196 18.9961 1.70539Z" fill="#333333"/>
</g>
<defs>
<clipPath id="clip0_101_712">
<rect width="18" height="14" fill="white" transform="translate(0.996094)"/>
</clipPath>
</defs>
</svg>
