<svg width="160" height="48" viewBox="0 0 160 48" fill="none" xmlns="http://www.w3.org/2000/svg">
<g clip-path="url(#clip0_101_751)">
<path d="M72.657 0.0384829C72.3458 0.0768549 72.0311 0.23732 71.7718 0.488483C71.3914 0.854762 71.2461 1.23151 71.2738 1.76523C71.2876 2.0443 71.3084 2.12453 71.4156 2.35476C71.8997 3.38034 73.2172 3.62802 74.0298 2.84313C74.7145 2.18732 74.7007 1.07453 74.0022 0.450111C73.8051 0.272204 73.4212 0.0803435 73.2068 0.0524364C73.1204 0.0419714 73.0097 0.0280178 72.9613 0.0210412C72.9129 0.0175529 72.7746 0.0245295 72.657 0.0384829Z" fill="#333333"/>
<path d="M50.72 0.164251C50.7062 0.174716 50.6958 3.35262 50.6958 7.22123C50.6958 12.6456 50.7062 14.2643 50.7373 14.2956C50.7684 14.327 51.0865 14.3375 51.9614 14.3375C52.6115 14.3375 53.1682 14.327 53.1994 14.3166C53.2478 14.2991 53.2547 14.2189 53.2547 13.7933V13.291L53.5106 13.5491C53.9394 13.9782 54.4926 14.2782 55.1842 14.4491C55.4159 14.5084 55.5923 14.5224 55.9692 14.5259C56.7196 14.5259 57.2106 14.4073 57.8883 14.0549C58.2929 13.8456 58.6007 13.6119 58.9568 13.2491C60.6305 11.5433 60.8691 8.66193 59.5101 6.61425C59.3061 6.30727 58.8116 5.76658 58.5315 5.5503C57.3212 4.60844 55.7202 4.39565 54.4442 5.00262C54.0293 5.20146 53.763 5.38634 53.4829 5.67239L53.2547 5.90611L53.2478 3.03169L53.2374 0.157274L51.9891 0.14681C51.3044 0.143321 50.7338 0.150297 50.72 0.164251ZM56.0418 7.09913C56.7472 7.28053 57.3454 7.84216 57.6082 8.56774C57.75 8.95495 57.7984 9.31425 57.7742 9.76076C57.7431 10.3747 57.5771 10.8526 57.2521 11.2922C56.5951 12.1747 55.2672 12.4294 54.2575 11.8677C53.9774 11.7143 53.5901 11.3236 53.4172 11.0236C52.9435 10.2003 52.9469 8.97937 53.4276 8.1596C53.7803 7.55611 54.3647 7.15495 55.0459 7.04681C55.2949 7.00844 55.7824 7.03286 56.0418 7.09913Z" fill="#333333"/>
<path d="M107.429 0.164145C107.415 0.17461 107.404 3.35949 107.404 7.24205C107.404 13.6397 107.408 14.2955 107.46 14.3165C107.491 14.3269 108.047 14.3374 108.701 14.3374C109.624 14.3374 109.894 14.3269 109.922 14.2921C109.949 14.2607 109.963 13.4234 109.974 11.6514C109.987 8.82926 109.984 8.90252 110.188 8.35136C110.433 7.69554 110.931 7.23159 111.554 7.0781C111.83 7.00833 112.325 7.0188 112.557 7.09554C113.075 7.27345 113.421 7.6781 113.604 8.33042C113.677 8.59554 113.68 8.64787 113.691 11.4211C113.698 13.3816 113.712 14.2607 113.739 14.2921C113.767 14.3269 114.03 14.3374 114.96 14.3374C115.614 14.3374 116.17 14.3269 116.201 14.3165C116.25 14.2955 116.257 13.9955 116.257 11.2781C116.257 8.73159 116.25 8.20135 116.201 7.89438C116.066 6.97694 115.748 6.2688 115.212 5.70019C114.538 4.98508 113.725 4.66066 112.626 4.66763C111.62 4.67461 110.88 4.96415 110.267 5.58508L109.963 5.89205L109.956 3.02461L109.946 0.157168L108.698 0.146703C108.013 0.143214 107.442 0.150191 107.429 0.164145Z" fill="#333333"/>
<path d="M19.9003 1.08521C15.0695 1.448 10.671 3.28288 6.98482 6.46427C6.42464 6.94916 5.04145 8.36544 4.5608 8.948C2.46182 11.4945 0.974903 14.3585 0.15191 17.4596C0.0377976 17.8852 0.0205078 17.9968 0.0205078 18.3317C0.0205078 18.7887 0.079293 19.0468 0.283312 19.4654C0.400883 19.7026 0.487331 19.8212 0.72593 20.0585C1.21696 20.5573 1.77369 20.791 2.45491 20.791C3.13612 20.791 3.69285 20.5573 4.18388 20.0585C4.55043 19.6922 4.71295 19.3817 4.89276 18.7085C5.86445 15.0596 8.10174 11.7387 11.1171 9.45381C16.2798 5.54334 23.2026 4.87707 28.967 7.74102C30.3398 8.42474 31.4982 9.19567 32.6463 10.1899C34.6796 11.9515 36.367 14.341 37.3491 16.8457C37.6223 17.5399 37.7226 17.8399 37.937 18.5933C38.1341 19.291 38.2378 19.5317 38.466 19.8387C38.753 20.2224 39.1542 20.5085 39.6417 20.6759C39.8976 20.7666 39.9633 20.7736 40.4059 20.7736C40.8382 20.7701 40.9212 20.7596 41.1667 20.6759C41.554 20.5468 41.8479 20.3619 42.1315 20.0724C42.581 19.6189 42.8023 19.1061 42.8369 18.4643C42.8576 18.0352 42.83 17.8852 42.581 17.0096C40.9281 11.2294 36.8892 6.28637 31.557 3.52009C29.0016 2.19451 26.4496 1.43753 23.5138 1.13055C22.881 1.06428 20.5469 1.03637 19.9003 1.08521Z" fill="#333333"/>
<path d="M101.11 2.29913C101.089 2.34448 101.075 2.81889 101.075 3.60726V4.84912H100.183C99.5365 4.84912 99.2806 4.85958 99.2495 4.89098C99.2184 4.92238 99.208 5.2154 99.208 6.00028C99.208 6.78516 99.2184 7.07818 99.2495 7.10958C99.2806 7.14097 99.5365 7.15144 100.183 7.15144H101.075V9.09445C101.075 11.1142 101.096 11.5921 101.214 12.0561C101.362 12.6561 101.77 13.3084 102.227 13.6712C102.918 14.2258 103.807 14.47 104.965 14.4316C105.484 14.4107 106.155 14.3165 106.269 14.2468C106.283 14.2363 106.297 13.734 106.297 13.1305C106.297 12.2305 106.29 12.0282 106.248 12.0142C106.224 12.0037 106.072 12.0212 105.916 12.0491C105.584 12.1154 104.962 12.1224 104.699 12.0665C104.243 11.9689 103.914 11.6968 103.769 11.2921C103.689 11.0758 103.689 11.0654 103.676 9.1119L103.665 7.15144H104.913C105.709 7.15144 106.186 7.13748 106.231 7.11655C106.293 7.08167 106.297 7.03283 106.297 6.00726C106.297 5.21889 106.286 4.92238 106.255 4.89098C106.224 4.85958 105.885 4.84912 104.941 4.84912H103.669V3.58284C103.669 2.64448 103.658 2.3061 103.627 2.27471C103.596 2.24331 103.267 2.23285 102.365 2.23285C101.196 2.23285 101.144 2.23634 101.11 2.29913Z" fill="#333333"/>
<path d="M65.4093 4.67794C64.2508 4.76864 63.2135 5.22561 62.4147 5.99306C61.7162 6.66282 61.2805 7.44073 61.0453 8.44189C60.9416 8.89538 60.9001 9.81631 60.9624 10.3082C61.118 11.4803 61.5779 12.4221 62.3697 13.1861C63.5765 14.3547 65.4058 14.8012 67.2558 14.3861C68.1687 14.1803 68.964 13.7686 69.6003 13.1721C69.9115 12.8791 70.2089 12.5093 70.1916 12.4291C70.1812 12.3698 68.511 11.0791 68.3935 11.0407C68.3554 11.0268 68.2482 11.1105 68.0477 11.3128C67.7122 11.6547 67.4045 11.85 66.9653 11.9965C65.8761 12.3593 64.6935 12.1396 64.0122 11.4419C63.7114 11.1384 63.497 10.7198 63.4348 10.3291L63.4106 10.1861H66.9065C69.5 10.1861 70.4094 10.1756 70.4267 10.1477C70.4751 10.0675 70.4855 9.10817 70.4406 8.71399C70.2504 6.96631 69.3306 5.66515 67.8367 5.04422C67.1106 4.74073 66.2495 4.60817 65.4093 4.67794ZM66.5435 6.91747C66.8927 7.03957 67.2178 7.24887 67.4356 7.49306C67.6258 7.71282 67.8367 8.10701 67.8713 8.30933L67.8921 8.44189H65.7032H63.5178L63.5385 8.32678C63.5731 8.14887 63.784 7.74073 63.9396 7.56282C64.1125 7.3605 64.524 7.07794 64.7937 6.97678C65.1568 6.84073 65.3851 6.80585 65.8415 6.81631C66.2011 6.82329 66.3187 6.84073 66.5435 6.91747Z" fill="#333333"/>
<path d="M80.7622 4.67859C79.9219 4.75882 79.0229 5.20533 78.6356 5.73557L78.5145 5.90301L78.4972 5.41115C78.4834 5.02394 78.4696 4.90882 78.4281 4.8844C78.397 4.86347 77.8748 4.84952 77.1936 4.84952C76.1666 4.84952 76.0041 4.85649 75.9591 4.90533C75.9107 4.95417 75.9038 5.42859 75.9038 9.60766C75.9038 13.1763 75.9142 14.2646 75.9453 14.296C75.9764 14.3274 76.3015 14.3379 77.1867 14.3379C78.2344 14.3379 78.397 14.3309 78.4419 14.2821C78.4903 14.2332 78.4972 13.9542 78.4972 11.7146C78.4972 9.32161 78.5007 9.18556 78.5664 8.85417C78.684 8.2751 78.8811 7.8844 79.2234 7.54603C79.6453 7.12743 80.3196 6.93556 80.9109 7.06115C81.6612 7.22161 82.0935 7.81463 82.1972 8.82975C82.218 9.03905 82.2318 10.2216 82.2318 11.7391C82.2318 14.0379 82.2387 14.296 82.2871 14.317C82.3183 14.3274 82.875 14.3379 83.5251 14.3379C84.3999 14.3379 84.718 14.3274 84.7492 14.296C84.8045 14.2402 84.808 8.64138 84.7526 8.13557C84.5659 6.37045 83.6426 5.17045 82.1799 4.77975C81.9621 4.72394 81.1737 4.62626 81.0907 4.64719C81.0803 4.64719 80.9351 4.66463 80.7622 4.67859Z" fill="#333333"/>
<path d="M89.8557 4.67813C87.9504 4.85254 86.3597 6.35254 85.924 8.38975C85.8169 8.89208 85.803 9.75022 85.8895 10.2735C86.0693 11.3305 86.5084 12.2025 87.2277 12.9246C88.3653 14.0793 89.9975 14.4979 91.4637 14.0165C91.9754 13.8491 92.4941 13.5211 92.7915 13.1758L92.9506 12.9944V13.4304C92.9506 13.6711 92.9333 13.9677 92.916 14.0932C92.7811 14.9444 92.3247 15.6002 91.6193 15.9421C91.2389 16.1235 90.9173 16.1932 90.409 16.1898C89.4961 16.1863 88.6005 15.8793 87.8743 15.3211C87.7049 15.1921 87.5596 15.1049 87.5216 15.1118C87.4421 15.1258 86.173 16.856 86.173 16.9502C86.173 17.0758 86.7055 17.4665 87.2657 17.7491C88.3308 18.2898 89.7209 18.5514 90.9968 18.4572C91.8924 18.3874 92.5183 18.2339 93.1788 17.913C94.3891 17.3235 95.1152 16.3118 95.4299 14.7735C95.4818 14.5223 95.4887 13.9921 95.4991 9.71882C95.5094 6.1572 95.5025 4.93278 95.4714 4.89789C95.4403 4.85952 95.2155 4.84906 94.2577 4.84906C93.5142 4.84906 93.0612 4.86301 93.0163 4.88394C92.9575 4.91882 92.9506 4.96417 92.9506 5.40371V5.8851L92.6497 5.5851C92.4803 5.42115 92.2451 5.2258 92.1207 5.15254C91.4775 4.77929 90.651 4.60487 89.8557 4.67813ZM91.4152 7.10254C92.1898 7.30138 92.7846 7.87696 93.0439 8.66882C93.1235 8.91301 93.1338 9.0072 93.1373 9.41882C93.1373 9.96999 93.0889 10.2002 92.871 10.6188C92.2866 11.756 90.8585 12.1921 89.6655 11.5921C89.3405 11.4281 88.8702 10.9711 88.7077 10.6572C88.4829 10.2281 88.438 10.0153 88.438 9.43626C88.4414 8.96185 88.4483 8.88859 88.5348 8.62696C88.8114 7.78975 89.5341 7.18975 90.4366 7.04324C90.6718 7.00836 91.1628 7.03627 91.4152 7.10254Z" fill="#333333"/>
<path d="M121.773 4.67835C119.56 4.85276 117.88 6.32834 117.392 8.51555C117.323 8.83648 117.312 8.96555 117.312 9.62834C117.316 10.4411 117.357 10.7272 117.555 11.3272C117.949 12.5097 118.834 13.5074 119.961 14.0376C121.051 14.5504 122.344 14.6725 123.62 14.3865C124.533 14.1807 125.328 13.769 125.965 13.1725C126.276 12.8795 126.573 12.5097 126.556 12.4295C126.546 12.3702 124.875 11.0795 124.758 11.0411C124.72 11.0272 124.613 11.1109 124.412 11.3132C124.077 11.6551 123.769 11.8504 123.33 11.9969C122.24 12.3597 121.058 12.14 120.376 11.4423C120.076 11.1388 119.861 10.7202 119.799 10.3295L119.775 10.1865H123.271C125.864 10.1865 126.774 10.176 126.791 10.1481C126.84 10.0679 126.85 9.10858 126.805 8.71439C126.615 6.96672 125.695 5.66555 124.201 5.04462C123.475 4.74114 122.614 4.60858 121.773 4.67835ZM122.908 6.91788C123.257 7.03997 123.582 7.24927 123.8 7.49346C123.983 7.70276 124.191 8.09346 124.229 8.30974L124.253 8.4423H122.067H119.882L119.903 8.32718C119.937 8.14927 120.148 7.74113 120.304 7.56323C120.477 7.3609 120.888 7.07834 121.158 6.97718C121.521 6.84114 121.749 6.80625 122.206 6.81672C122.565 6.82369 122.683 6.84114 122.908 6.91788Z" fill="#333333"/>
<path d="M71.6784 4.88789C71.6197 4.91928 71.6162 5.18091 71.6162 9.58673C71.6162 13.1693 71.6266 14.2646 71.6577 14.296C71.6888 14.3274 72.0069 14.3379 72.8817 14.3379C73.5317 14.3379 74.0884 14.3274 74.1195 14.317C74.1679 14.296 74.1748 13.8495 74.1748 9.61463C74.1748 6.02161 74.1644 4.92277 74.1333 4.89138C74.078 4.83556 71.7683 4.83208 71.6784 4.88789Z" fill="#333333"/>
<path d="M149.63 15.9628C149.557 16.0535 149.557 16.0779 149.557 18.5965V21.1396H147.731C145.916 21.1396 145.902 21.1396 145.836 21.2128C145.774 21.2826 145.771 21.3698 145.771 23.414V25.5419L145.853 25.6082C145.93 25.6709 146.013 25.6744 147.745 25.6744H149.554L149.567 29.9896C149.581 34.7442 149.571 34.5384 149.802 35.4698C150.491 38.2709 152.68 39.9733 155.954 40.2593C157.317 40.3779 159.748 40.1163 159.948 39.8268C159.993 39.7605 160 39.4849 160 37.664C160 36.2582 159.99 35.5535 159.962 35.5082C159.896 35.3826 159.793 35.3721 159.44 35.4593C158.887 35.5954 158.51 35.6268 157.711 35.6058C157.061 35.5919 156.933 35.5779 156.629 35.4977C155.484 35.1977 154.906 34.4861 154.747 33.1744C154.723 32.9861 154.709 31.5837 154.709 29.2779V25.6744H157.268H159.831L159.914 25.5872L160 25.5035V23.414C160 21.3523 160 21.3209 159.927 21.2303L159.858 21.1396H157.282H154.709V18.5965C154.709 16.0779 154.709 16.0535 154.637 15.9628L154.568 15.8721H152.133H149.699L149.63 15.9628Z" fill="#333333"/>
<path d="M60.6202 20.7421C60.5717 20.749 60.3954 20.7735 60.2225 20.7944C58.6768 20.9897 56.972 21.8758 56.0729 22.9537L55.8655 23.2014L55.8482 22.2421C55.8309 21.3665 55.824 21.2793 55.7652 21.213C55.6995 21.1397 55.696 21.1397 53.2651 21.1397C50.8791 21.1397 50.8341 21.1397 50.765 21.2095C50.6958 21.2793 50.6958 21.3246 50.6958 34.5525C50.6958 47.7804 50.6958 47.8258 50.765 47.8956C50.8341 47.9653 50.8791 47.9653 53.2651 47.9653C55.696 47.9653 55.6995 47.9653 55.7652 47.8921C55.8274 47.8223 55.8309 47.6758 55.8482 42.9072L55.8655 37.9956L56.066 38.2363C56.3219 38.5467 56.8129 38.9793 57.2314 39.2618C58.1131 39.8584 59.2128 40.27 60.3228 40.4165C60.9072 40.4932 62.0621 40.4688 62.6431 40.3642C63.6805 40.1793 64.6383 39.8165 65.5305 39.2723C66.5886 38.6304 67.6606 37.577 68.3867 36.4642C69.4449 34.8525 70.0258 32.9444 70.0846 30.9246C70.1365 29.0793 69.7872 27.4363 69.0057 25.8316C67.6225 22.9921 65.1051 21.1153 62.2247 20.7735C61.8304 20.7281 60.8588 20.7072 60.6202 20.7421ZM61.1734 25.5525C63.1618 25.9642 64.583 27.6351 64.8389 29.8607C64.9011 30.377 64.8665 31.3084 64.7697 31.7932C64.4135 33.6002 63.3001 34.9537 61.7129 35.4979C60.8138 35.8084 59.6001 35.8188 58.6768 35.5258C57.0585 35.0095 55.8966 33.6316 55.537 31.7932C55.4401 31.3084 55.4055 30.377 55.4678 29.8607C55.7548 27.37 57.4907 25.6049 59.7902 25.4688C60.2536 25.4409 60.8 25.4758 61.1734 25.5525Z" fill="#333333"/>
<path d="M79.1021 20.7561C76.3391 21.0735 73.922 22.7619 72.4662 25.3886C71.8057 26.5816 71.3838 27.9351 71.2178 29.4072C71.1383 30.1014 71.1625 31.5246 71.2628 32.1804C71.37 32.8746 71.4979 33.4153 71.7054 34.0362C72.4039 36.1571 73.6799 37.8943 75.3916 39.0559C76.4982 39.8094 77.7707 40.2838 79.0675 40.4303C79.4755 40.4757 80.4783 40.4757 80.8483 40.4303C81.6575 40.3292 82.5151 40.071 83.2309 39.7117C84.0919 39.2827 84.6452 38.8431 85.2884 38.0757L85.3749 37.9711L85.3783 38.9304C85.3783 39.7431 85.3852 39.9036 85.4336 39.9699L85.4855 40.0466H87.9372H90.3889L90.4581 39.9559L90.5307 39.8617V30.5932V21.3247L90.4581 21.2305L90.3889 21.1398H87.9511C85.5616 21.1398 85.5166 21.1398 85.4475 21.2096C85.3818 21.2758 85.3783 21.3247 85.3783 22.2456V23.2154L85.1985 23.0061C84.2441 21.8828 82.854 21.1189 81.2356 20.8224C80.7757 20.7386 79.5862 20.7038 79.1021 20.7561ZM81.5572 25.4793C81.9584 25.5037 82.5843 25.6642 83.0061 25.8491C84.8596 26.6688 85.9593 28.7618 85.7656 31.0886C85.6515 32.4699 85.195 33.5304 84.3409 34.399C83.677 35.0757 82.9854 35.449 82.0241 35.6548C81.5503 35.756 80.6858 35.7629 80.1913 35.6722C78.2721 35.3234 76.8647 33.8862 76.4601 31.8595C76.2942 31.0397 76.2942 30.1502 76.4567 29.3409C76.8786 27.2549 78.3863 25.7653 80.3469 25.5002C80.6443 25.4619 80.9728 25.4409 81.1423 25.4549C81.2011 25.4584 81.3878 25.4723 81.5572 25.4793Z" fill="#333333"/>
<path d="M114.339 20.7599C109.719 21.2099 106.296 24.4575 105.601 29.0587C105.528 29.5401 105.518 29.7145 105.521 30.6459C105.521 31.5459 105.531 31.7622 105.597 32.1982C105.78 33.4017 106.081 34.361 106.59 35.3692C107.018 36.2203 107.558 36.9634 108.249 37.6575C109.702 39.1157 111.562 40.0227 113.799 40.3645C114.284 40.4413 114.45 40.4482 115.477 40.4482C116.697 40.4448 117.008 40.4203 117.914 40.2355C119.574 39.9006 121.141 39.1785 122.375 38.1738C122.946 37.7134 123.935 36.6389 124.028 36.3843C124.049 36.332 124.049 36.2622 124.028 36.2099C124.007 36.1506 123.444 35.7075 122.303 34.8494C121.369 34.1482 120.563 33.5482 120.508 33.5134C120.363 33.4192 120.252 33.4645 120.079 33.6948C119.837 34.0087 119.329 34.4761 118.934 34.7413C117.008 36.0424 114.194 36.0843 112.33 34.8459C112.005 34.6261 111.51 34.1587 111.272 33.8378C111.061 33.5552 110.794 33.0355 110.677 32.6796C110.608 32.4703 110.48 31.9192 110.48 31.8285C110.48 31.8215 113.606 31.8145 117.427 31.8145C124.108 31.8145 124.377 31.811 124.45 31.7517C124.516 31.6959 124.533 31.6366 124.557 31.375C124.595 30.918 124.595 29.4494 124.554 28.9889C124.436 27.6843 124.142 26.5855 123.62 25.518C123.174 24.5971 122.724 23.9727 121.991 23.2471C120.542 21.8203 118.592 20.9622 116.324 20.7564C115.86 20.7145 114.785 20.718 114.339 20.7599ZM115.926 25.0506C117.572 25.2599 118.865 26.3238 119.346 27.8657C119.394 28.0261 119.436 28.1866 119.436 28.225C119.436 28.2913 119.374 28.2913 115.062 28.2913C111.265 28.2913 110.687 28.2843 110.687 28.2424C110.687 28.1308 110.874 27.5971 111.002 27.3355C111.68 25.961 113.125 25.1099 114.958 25.0017C115.193 24.9878 115.591 25.0087 115.926 25.0506Z" fill="#333333"/>
<path d="M136.505 20.7597C134.662 20.9864 133.14 21.7957 132.193 23.055L132.027 23.2783V22.2771C132.027 21.3248 132.023 21.2759 131.958 21.2097C131.888 21.1399 131.843 21.1399 129.457 21.1399C127.026 21.1399 127.023 21.1399 126.957 21.2132C126.892 21.2864 126.892 21.4887 126.892 30.5934C126.892 39.698 126.892 39.9004 126.957 39.9736C127.023 40.0469 127.026 40.0469 129.468 40.0469C131.702 40.0469 131.919 40.0434 131.961 39.9876C132.002 39.9422 132.013 39.098 132.03 34.9399C132.051 29.7457 132.047 29.819 132.203 29.048C132.594 27.0945 133.735 25.8422 135.422 25.5178C135.806 25.4445 136.567 25.4445 136.923 25.5178C138.23 25.7899 139.074 26.812 139.399 28.5143C139.475 28.898 139.475 28.9608 139.492 34.4236C139.513 39.8411 139.513 39.9492 139.579 39.998C139.638 40.0399 140.035 40.0469 142.079 40.0469C144.465 40.0469 144.51 40.0469 144.579 39.9771C144.648 39.9073 144.648 39.862 144.648 34.2457C144.648 30.6771 144.634 28.4062 144.614 28.0992C144.468 26.1213 143.901 24.5097 142.902 23.2155C142.612 22.8387 142.003 22.2562 141.605 21.9666C140.838 21.4155 139.828 21.0108 138.752 20.8225C138.306 20.7422 136.947 20.7038 136.505 20.7597Z" fill="#333333"/>
<path d="M12.9853 20.8922C12.6534 20.9829 12.5047 21.0526 12.235 21.2305C11.8027 21.5236 11.4673 21.9631 11.2875 22.4829C11.1976 22.7375 11.1872 22.8143 11.1768 23.3445C11.1284 25.5422 11.9514 27.8934 13.4176 29.7562C13.7876 30.2271 14.5414 30.9876 15.0083 31.3608C16.1563 32.2818 17.4945 32.955 18.9019 33.3178C19.6972 33.5201 20.2609 33.5969 21.1531 33.6178C22.7921 33.6597 24.1442 33.3946 25.5723 32.7562C28.9093 31.2666 31.2054 28.1271 31.6445 24.4538C31.7137 23.8712 31.7068 22.9154 31.6307 22.6398C31.4301 21.9317 30.946 21.3491 30.3028 21.0491C29.9639 20.8887 29.6804 20.8259 29.2689 20.8259C28.1866 20.8259 27.2771 21.4887 26.9521 22.5177C26.8829 22.734 26.8552 22.9154 26.831 23.3375C26.7895 24.0387 26.7204 24.4468 26.5578 24.9492C25.932 26.8538 24.3897 28.2282 22.4256 28.6294C21.9518 28.7236 20.8557 28.7166 20.3819 28.612C19.2754 28.3713 18.4213 27.9003 17.6363 27.1085C17.1556 26.6236 16.8825 26.2433 16.6024 25.6817C16.2497 24.9736 16.0975 24.3596 16.0456 23.4596C16.0076 22.7759 15.9315 22.4515 15.7206 22.0712C15.4474 21.5759 14.9253 21.1363 14.3962 20.948C14.0262 20.8154 13.3553 20.791 12.9853 20.8922Z" fill="#ED4D41"/>
<path d="M103.267 20.9306C102.427 21.0283 101.531 21.3876 100.826 21.9143C100.196 22.3818 99.6812 23.0027 99.3424 23.7039L99.1383 24.1225V22.6992C99.1383 21.3248 99.1349 21.2759 99.0692 21.2097C99 21.1399 98.9551 21.1399 96.5863 21.1399C94.4597 21.1399 94.1657 21.1469 94.0966 21.1957L94.0205 21.248V30.5899C94.0205 39.5969 94.024 39.9318 94.0828 39.9876C94.1415 40.0434 94.3663 40.0469 96.5863 40.0469C98.879 40.0469 99.0277 40.0434 99.0796 39.9841C99.1314 39.9283 99.1349 39.4748 99.1487 35.0934C99.1591 29.798 99.1522 30.0318 99.37 29.1806C99.7815 27.5725 100.784 26.4736 102.174 26.1039C102.448 26.0341 102.617 26.0132 103.08 25.9992C103.737 25.9783 104.232 26.0341 104.868 26.2015C105.086 26.2573 105.287 26.3027 105.314 26.3027C105.342 26.3027 105.404 26.2643 105.449 26.2155L105.536 26.1318V23.6969C105.536 20.969 105.553 21.1399 105.283 21.0666C104.809 20.9376 103.803 20.8713 103.267 20.9306Z" fill="#333333"/>
<path d="M1.98136 25.793C1.39696 25.9221 0.930139 26.1942 0.573969 26.6198C0.0241531 27.2791 -0.131455 28.0744 0.110602 28.9884C1.46267 34.1582 4.63016 38.6477 9.07018 41.6931C11.7397 43.528 14.9729 44.7873 18.2027 45.2617C19.4441 45.4396 19.8487 45.4675 21.3805 45.4675C22.8813 45.471 23.3723 45.4396 24.51 45.2757C30.9314 44.3582 36.6509 40.6117 40.0812 35.0826C41.1947 33.2826 41.99 31.4826 42.6193 29.3023C42.7957 28.7023 42.7991 28.6849 42.7991 28.2209C42.7991 27.8023 42.7888 27.7186 42.7058 27.4709C42.5744 27.0733 42.3911 26.7767 42.0937 26.4767C41.6788 26.0616 41.25 25.8523 40.6587 25.7721C40.1676 25.7058 39.5763 25.8314 39.1268 26.1C38.8363 26.2709 38.4006 26.7279 38.2485 27.0174C38.1724 27.164 38.041 27.5372 37.9269 27.9384C37.5742 29.1698 37.2042 30.1186 36.6509 31.2035C34.2787 35.864 29.8906 39.2024 24.7693 40.2384C22.4075 40.7129 19.9005 40.6745 17.5422 40.1268C13.5897 39.2094 10.0765 36.8966 7.64896 33.6105C6.3626 31.8663 5.45315 29.9861 4.85147 27.8198C4.69586 27.2547 4.55754 26.9547 4.31548 26.6442C3.79679 25.9884 2.78707 25.6186 1.98136 25.793Z" fill="#ED4D41"/>
</g>
<defs>
<clipPath id="clip0_101_751">
<rect width="160" height="48" fill="white"/>
</clipPath>
</defs>
</svg>
